# xmcd
#
# Track frame offsets:
#	150
#	27562
#	75379
#	111324
#	145903
#
# Disc length: 2225 seconds
#
# Revision: 1
# Processed by: cddbd v1.5.2PL0 Copyright (c) Steve Scherf et al.
# Submitted via: audiograbber 1.83.01
#
DISCID=3c08af05
DTITLE=Grateful Dead - 78-04-21 Rupp Arena, Lexington KY
DYEAR=1900
DGENRE=
TTITLE0=Brown Eyed Women
TTITLE1=The Music Never Stopped
TTITLE2=Samson and Delilah
TTITLE3=Ship Of Fools
TTITLE4=Stage Banter
EXTD=
EXTT0=
EXTT1=
EXTT2=
EXTT3=
EXTT4=
PLAYORDER=
